<svg id="Layer_1" data-name="Layer 1" xmlns="http://www.w3.org/2000/svg" width="451.4043" height="197.1064" viewBox="0 0 451.4043 197.1064"><defs><style>.cls-1{fill:#171717;}.cls-2{fill:#fec40e;}.cls-3{fill:#fed607;}</style></defs><path class="cls-1" d="M161,61.6036,179.4,120.4049l18.0195-58.8013h30.919l-36.04,94.082c-9.1045,23.9-16.123,30.5391-40.5918,30.5391h-9.2949V165.36h5.6914c12.14,0,14.2256-.5694,17.0713-7.7774l.9482-2.4658-36.04-93.5127Z"/><path class="cls-1" d="M237.8215,155.6856V61.6036h22.7617l5.1211,17.2608c5.88-15.1744,15.9336-20.6753,30.35-19.9166V87.7794a57.782,57.782,0,0,0-7.7774-.5689c-14.0361,0-21.624,6.07-21.624,21.0547v47.42Z"/><path class="cls-1" d="M306.2961,61.6036h46.8515v94.082H324.1261V83.6065h-17.83ZM321.66,28.9781a17.0713,17.0713,0,1,1,17.0713,17.0713A17,17,0,0,1,321.66,28.9781Z"/><path class="cls-1" d="M370.9758,28.9781h28.831v92.565c0,8.915,2.8457,10.622,12.5195,10.622h8.1563v23.5205H402.0832c-23.1407,0-31.1074-4.3628-31.1074-26.5556Z"/><path class="cls-2" d="M124.7324,129.7262A54.1,54.1,0,0,1,50.129,143.5178a52.5731,52.5731,0,0,1-13.9683-73.66"/><path class="cls-3" d="M42.2237,136.733a52.5183,52.5183,0,0,1,0-74.94,54.1564,54.1564,0,0,1,75.9,0"/><circle class="cls-3" cx="338.7241" cy="29.089" r="18.2211"/></svg>