<svg width="512" height="512" xmlns="http://www.w3.org/2000/svg" style="vector-effect: non-scaling-stroke;" stroke="null">
 <!-- Created with UXWing SVG Editor - https://uxwing.com/svg-icon-editor/ -->

 <g stroke="null">
  <title stroke="null">background</title>
  <rect stroke="null" fill="none" id="canvas_background" height="514" width="514" y="-1" x="-1"/>
  <g style="vector-effect: non-scaling-stroke;" stroke="null" display="none" overflow="visible" y="0" x="0" height="100%" width="100%" id="canvasGrid">
   <rect fill="url(#gridpattern)" stroke-width="0" y="0" x="0" height="100%" width="100%"/>
  </g>
 </g>
 <g stroke="null">
  <title stroke="null">Layer 1</title>
  <style style="vector-effect: non-scaling-stroke;" stroke="null" transform="matrix(3.4152588347780153,0,0,3.4152588347780153,0,0) " type="text/css">.st0{fill-rule:evenodd;clip-rule:evenodd;}</style>
  <g stroke="null" id="svg_7">
   <g stroke="null" transform="matrix(5.570175498917791,0,0,3.7814560773115424,-164.02761676254136,-17.949323176555936) " id="svg_5">
    <path fill="#7f007f" stroke="null" id="svg_6" d="m117.742713,126.584258l-11.55,-2.07l-5.73,10.26c-4.16,5.15 -6.8,-3.32 -7.96,-6.27l-11.15,-21.03c2.57,-0.89 5.67,-3.46 8.85,-6.35c6.35,0.13 12.27,-0.97 16.62,-6.51l12.81,24.75l1.11,2.38c0.88,3.09 0.42,5.13 -3,4.84l0,0zm-42.78,-113.06c2.17,-0.09 3.88,0.66 5.61,1.76c2.19,1.39 4.66,4.14 7.71,5.88c4.29,2.45 12.23,-0.93 16.29,5.11c2.37,3.52 2.48,6.28 2.66,9.01c0.19,2.94 0.71,5.65 3.72,9.63c4.99,6.6 6.03,10.99 3.46,15.56c-1.75,3.12 -5.44,4.85 -6.29,6.83c-1.82,4.2 0.19,7.37 -2.29,12.27c-1.73,3.4 -4.39,5.64 -7.94,6.78c-2.99,0.96 -5.99,-0.43 -8.39,0.58c-4.21,1.77 -7.31,5.88 -10.66,6.92c-1.29,0.4 -2.58,0.6 -3.87,0.59c-1.29,0.01 -2.58,-0.19 -3.87,-0.59c-3.35,-1.04 -6.45,-5.15 -10.66,-6.92c-2.4,-1.01 -5.4,0.39 -8.39,-0.58c-3.55,-1.14 -6.21,-3.38 -7.94,-6.78c-2.49,-4.9 -0.48,-8.07 -2.29,-12.27c-0.85,-1.98 -4.54,-3.71 -6.29,-6.83c-2.59,-4.57 -1.55,-8.96 3.44,-15.55c3.01,-3.98 3.53,-6.69 3.72,-9.63c0.18,-2.73 0.29,-5.49 2.66,-9.01c4.07,-6.04 12.01,-2.66 16.29,-5.11c3.05,-1.74 5.52,-4.49 7.71,-5.88c1.72,-1.11 3.44,-1.87 5.61,-1.77l0,0zm-7.05,35.78l5.22,4.97l8.98,-9.13c0.89,-0.9 1.45,-1.62 2.54,-0.5l3.56,3.64c1.17,1.16 1.11,1.83 0.01,2.91l-13.06,12.84c-2.32,2.28 -1.92,2.42 -4.28,0.08l-8.97,-8.92c-0.49,-0.53 -0.44,-1.07 0.1,-1.6l4.13,-4.28c0.63,-0.66 1.13,-0.62 1.77,-0.01l0,0zm7.05,-19.55c13.38,0 24.23,10.85 24.23,24.23c0,13.38 -10.85,24.23 -24.23,24.23c-13.38,0 -24.23,-10.85 -24.23,-24.23c0,-13.39 10.85,-24.23 24.23,-24.23l0,0zm-42.79,96.83l11.56,-2.07l5.73,10.26c4.16,5.15 6.8,-3.32 7.96,-6.27l11.15,-21.03c-2.57,-0.89 -5.67,-3.46 -8.85,-6.35c-6.35,0.13 -12.27,-0.97 -16.62,-6.51l-12.82,24.75l-1.11,2.38c-0.88,3.09 -0.42,5.13 3,4.84l0,0z" class="st0"/>
   </g>
  </g>
 </g>
</svg>