<svg width="512" height="512" xmlns="http://www.w3.org/2000/svg">
 <!-- Created with UXWing SVG Editor - https://uxwing.com/svg-icon-editor/ -->

 <g>
  <title>background</title>
  <rect fill="none" id="canvas_background" height="514" width="514" y="-1" x="-1"/>
  <g display="none" overflow="visible" y="0" x="0" height="100%" width="100%" id="canvasGrid">
   <rect fill="url(#gridpattern)" stroke-width="0" y="0" x="0" height="100%" width="100%"/>
  </g>
 </g>
 <g>
  <title>Layer 1</title>
  <g stroke="null" id="svg_7">
   <g stroke="null" transform="matrix(4.134634938760451,0,0,3.844915535554064,-293.20909348583916,-246.26030333201146) " id="svg_5">
    <path fill="#7f007f" stroke="null" id="svg_6" d="m86.626563,158.403574c1.14,-0.89 2.79,-0.68 3.68,0.46c0.89,1.14 0.68,2.79 -0.46,3.68l-13.23,10.28l-0.1,13.85l16.25,-0.91l8.82,-14.02c0.77,-1.22 2.39,-1.59 3.61,-0.82c1.22,0.77 1.59,2.39 0.82,3.61l-9.5,15.09c-0.43,0.73 -1.21,1.24 -2.12,1.29l-20.37,1.15l0,0c-0.05,0 -0.1,0 -0.15,0c-1.44,-0.01 -2.61,-1.18 -2.6,-2.63l0.13,-17.71c-0.06,-0.85 0.29,-1.71 1.01,-2.27l14.21,-11.05l0,0zm24.73,-32.31c6.6,-19.73 15.5,-33.72 28.02,-42.53c12.99,-9.15 29.69,-12.61 51.57,-11.03c1.51,0.11 2.67,1.35 2.69,2.83c2.12,23.69 -2.48,40.49 -12.28,53.22c-9.43,12.24 -23.58,20.52 -41.14,27.47l0,23.13c0,1.13 -0.65,2.12 -1.6,2.59l-17.88,11.05c-1.36,0.84 -3.14,0.42 -3.98,-0.94c-0.22,-0.36 -0.36,-0.75 -0.41,-1.14l0,0c-3.96,-30.26 -8.17,-31.71 -32.91,-40.27c-2.96,-1.02 -6.15,-2.13 -8.31,-2.89c-1.51,-0.53 -2.3,-2.19 -1.77,-3.69c0.11,-0.32 0.28,-0.61 0.48,-0.87l11.79,-16.8c0.59,-0.84 1.55,-1.28 2.5,-1.23l0,0l23.23,1.1l0,0zm50.62,-22.29c-1.6,-1.6 -3.8,-2.58 -6.24,-2.58c-2.43,0 -4.64,0.99 -6.24,2.58c-1.6,1.6 -2.58,3.8 -2.58,6.24c0,2.43 0.99,4.64 2.58,6.24c1.6,1.6 3.8,2.58 6.24,2.58c2.43,0 4.64,-0.99 6.24,-2.58c1.6,-1.6 2.58,-3.8 2.58,-6.24c0,-2.44 -0.99,-4.64 -2.58,-6.24l0,0z"/>
   </g>
  </g>
 </g>
</svg>