<svg width="480" height="480" xmlns="http://www.w3.org/2000/svg">
 <!-- Created with UXWing SVG Editor - https://uxwing.com/svg-icon-editor/ -->
 <g>
  <title>background</title>
  <rect fill="none" id="canvas_background" height="482" width="482" y="-1" x="-1"/>
  <g display="none" overflow="visible" y="0" x="0" height="100%" width="100%" id="canvasGrid">
   <rect fill="url(#gridpattern)" stroke-width="0" y="0" x="0" height="100%" width="100%"/>
  </g>
 </g>
 <g>
  <title>Layer 1</title>
  <path stroke="#FF0000" transform="rotate(-0.13426057994365692 239.78851318362348,239.98898315429838) " id="svg_1" d="m51.6959,358.019407l375.898701,0.143627l-12.198,18.041851l-351.358683,-0.430864l-12.342033,-17.754614l0.000016,0zm2.583217,-239.997532l370.875767,-0.430864l10.763228,18.508183l-392.545903,0.143627l10.906907,-18.220946zm-36.600909,120.259528l443.790373,-0.430864l-0.573651,18.508199l-442.929703,-0.287237l-0.287019,-17.790098zm444.157741,1.716623c0,122.528613 -99.621007,222.206887 -222.091897,222.206887c-122.417979,0 -222.02042,-99.696289 -222.02042,-222.206887c0,-122.511194 99.620443,-222.189451 222.02042,-222.189451c122.470906,-0.018 222.091897,99.678257 222.091897,222.189451zm-222.074458,-239.997549c-132.190063,0 -239.760983,107.652817 -239.760983,239.979501c0,132.344715 107.570936,239.997516 239.760983,239.997516c132.262039,0 239.815005,-107.652801 239.815005,-239.997516c0,-132.326683 -107.55295,-239.979501 -239.815005,-239.979501zm67.283659,239.997549c0,130.932023 -35.446264,222.206887 -67.283659,222.206887c-31.801375,0 -67.247076,-91.274863 -67.247076,-222.206887c0,-130.968071 35.42823,-222.189451 67.247076,-222.189451c31.819425,-0.018 67.283659,91.22138 67.283659,222.189451zm-67.283659,-239.997549c-55.223203,0 -85.023642,123.654841 -85.023642,239.979501c0,116.360175 29.80044,239.997516 85.023642,239.997516c55.223766,0 85.078212,-123.655325 85.078212,-239.997516c-0.018002,-116.324659 -29.854446,-239.979501 -85.078212,-239.979501zm157.578013,239.997549c0,122.528613 -70.713651,222.206887 -157.578013,222.206887c-86.846312,0 -157.523991,-99.696289 -157.523991,-222.206887c0,-122.511194 70.677679,-222.189451 157.523991,-222.189451c86.864362,-0.018 157.578013,99.678257 157.578013,222.189451zm-157.578013,-239.997549c-96.636962,0 -175.300541,107.652817 -175.300541,239.979501c0,132.344715 78.66358,239.997516 175.300541,239.997516c96.672966,0 175.319091,-107.652801 175.319091,-239.997516c0,-132.326683 -78.646125,-239.979501 -175.319091,-239.979501z" stroke-width="0.001" fill="#7f007f"/>
 </g>
</svg>